<?xml version="1.0" standalone="no"?>
<!DOCTYPE svg PUBLIC "-//W3C//DTD SVG 20010904//EN"
 "http://www.w3.org/TR/2001/REC-SVG-20010904/DTD/svg10.dtd">
<svg version="1.0" xmlns="http://www.w3.org/2000/svg"
 width="1280.000000pt" height="1280.000000pt" viewBox="0 0 1280.000000 1280.000000"
 preserveAspectRatio="xMidYMid meet">
<metadata>
Created by potrace 1.14, written by Peter Selinger 2001-2017
</metadata>
<g transform="translate(0.000000,1280.000000) scale(0.100000,-0.100000)"
fill="#000000" stroke="none">
<path d="M0 6400 l0 -6400 6400 0 6400 0 0 6400 0 6400 -6400 0 -6400 0 0
-6400z m6538 4325 c477 -92 904 -447 1116 -927 l25 -56 -69 -36 -68 -36 24
-62 c52 -133 66 -285 43 -452 -11 -73 -10 -86 9 -138 27 -77 81 -155 173 -253
43 -45 83 -94 89 -109 22 -58 -20 -131 -97 -170 -18 -9 -33 -21 -33 -26 0 -5
14 -29 30 -54 43 -63 47 -97 20 -142 l-23 -36 22 -44 c27 -57 27 -60 -9 -127
-32 -60 -39 -122 -20 -173 27 -69 -17 -90 -225 -109 -85 -8 -184 -21 -220 -30
-188 -43 -310 -162 -347 -338 -11 -50 -10 -62 3 -85 21 -37 46 -32 138 27 110
70 204 116 309 150 203 67 317 67 507 1 300 -104 580 -132 940 -95 249 26 349
17 458 -42 27 -15 101 -76 165 -136 151 -143 205 -171 343 -175 97 -4 218 18
304 53 l32 14 -27 58 c-57 119 -82 220 -87 348 -8 187 25 290 138 430 90 111
123 160 153 233 74 177 84 395 26 616 -48 183 -136 413 -184 481 -72 101 -128
110 -233 38 -121 -83 -239 -122 -365 -123 -108 0 -154 33 -163 119 -9 82 -21
105 -81 157 -62 52 -77 77 -93 152 -14 66 -42 122 -86 171 -54 59 -43 106 42
180 110 98 299 163 473 163 183 0 333 -45 478 -144 102 -70 314 -282 440 -441
105 -132 293 -410 377 -556 161 -284 301 -617 379 -904 307 -1120 -136 -1956
-1206 -2281 -310 -94 -732 -143 -1008 -117 -232 22 -500 80 -679 147 -35 13
-64 24 -65 24 0 0 -1 -134 -1 -298 -1 -255 -4 -317 -23 -437 -65 -419 -205
-796 -421 -1139 l-58 -93 131 -37 c430 -122 677 -279 720 -459 18 -75 -45
-158 -145 -193 -83 -29 -379 -27 -551 4 -143 26 -418 94 -348 87 129 -14 360
-17 427 -6 168 29 211 132 87 210 -54 35 -207 87 -378 130 l-120 30 -117 -122
c-64 -67 -155 -156 -203 -197 -47 -40 -86 -77 -86 -82 0 -4 15 -8 33 -8 48 0
107 -19 107 -35 0 -20 -36 -42 -235 -147 -99 -52 -218 -119 -265 -148 -264
-165 -464 -359 -555 -540 -132 -263 -151 -647 -53 -1115 46 -223 46 -225 36
-225 -23 0 -116 251 -168 456 -78 304 -105 523 -97 787 6 197 26 320 72 436
14 36 25 68 25 72 0 4 -64 41 -142 81 -164 84 -396 235 -548 357 -134 108
-351 326 -459 461 -96 119 -225 312 -298 444 l-49 90 -204 48 c-523 123 -973
272 -1210 400 -251 136 -393 293 -394 437 -1 210 258 360 714 412 119 14 528
17 667 5 l91 -7 1 171 c1 160 0 172 -16 165 -10 -5 -80 -27 -156 -51 -274 -87
-575 -131 -828 -120 -414 17 -793 105 -1114 261 -717 346 -1038 986 -899 1790
65 379 237 816 492 1250 273 464 699 989 868 1069 151 72 378 99 514 63 148
-40 330 -155 403 -255 55 -75 55 -87 -1 -164 -27 -36 -55 -88 -62 -115 -20
-75 -50 -121 -100 -153 -61 -39 -92 -73 -132 -144 -22 -39 -45 -65 -68 -77
-80 -43 -232 -12 -418 87 -113 60 -130 66 -169 61 -87 -10 -138 -87 -219 -334
-92 -282 -123 -465 -104 -617 21 -173 76 -298 190 -436 123 -149 160 -245 160
-421 0 -122 -22 -225 -74 -349 -20 -46 -36 -87 -36 -91 0 -8 115 -44 188 -60
29 -6 94 -9 145 -7 133 5 194 36 335 170 207 196 289 220 632 183 346 -37 621
-10 946 95 169 54 256 70 381 70 186 0 379 -48 533 -132 41 -23 102 -56 134
-74 33 -18 65 -30 73 -27 49 19 -42 197 -159 310 -65 62 -132 105 -260 165
-116 55 -166 89 -237 159 -94 94 -159 204 -217 364 -17 50 -36 89 -40 88 -5
-2 -77 -30 -161 -63 -162 -64 -335 -113 -379 -108 -42 5 -52 31 -29 75 27 54
248 269 408 398 95 77 134 115 130 125 -41 105 -78 236 -95 334 -25 150 -21
379 11 516 69 303 224 559 447 739 304 246 752 359 1132 286z"/>
<path d="M6187 10609 c-180 -20 -414 -98 -552 -184 -78 -48 -118 -85 -94 -85
8 0 68 15 134 34 228 65 356 85 575 93 231 8 392 -10 667 -73 62 -14 118 -24
124 -22 39 13 -170 132 -311 178 -167 54 -379 77 -543 59z"/>
<path d="M11040 8632 c0 -7 25 -108 55 -225 128 -498 187 -960 172 -1349 -4
-81 -2 -150 2 -152 11 -7 35 79 58 204 25 138 25 568 0 730 -36 228 -108 465
-202 665 -41 89 -84 153 -85 127z"/>
<path d="M1716 8518 c-97 -176 -192 -470 -231 -713 -44 -278 -32 -685 25 -895
25 -88 30 -62 30 145 0 482 44 792 190 1365 17 69 34 133 36 143 12 39 -17 13
-50 -45z"/>
<path d="M10222 7836 c-113 -122 -130 -288 -46 -431 26 -45 71 -92 80 -83 3 3
-3 34 -12 69 -26 96 -23 271 5 378 30 114 26 124 -27 67z"/>
<path d="M2536 7798 c28 -89 36 -138 41 -249 4 -99 2 -143 -12 -204 -9 -42
-15 -79 -12 -81 2 -3 23 16 45 42 99 112 114 279 37 410 -46 79 -117 137 -99
82z"/>
<path d="M2147 6206 c32 -58 277 -191 493 -269 368 -132 782 -163 1170 -87
130 25 300 82 300 101 0 5 -141 6 -312 2 -579 -11 -946 43 -1500 223 -150 48
-163 51 -151 30z"/>
<path d="M10335 6100 c-395 -87 -927 -150 -1275 -150 -126 0 -240 -10 -240
-21 0 -24 208 -64 415 -80 386 -28 854 56 1173 211 157 77 139 86 -73 40z"/>
<path d="M4575 5433 c-3 -32 -1 -116 5 -186 40 -469 199 -914 461 -1297 113
-166 273 -347 298 -339 6 2 -39 90 -99 194 -316 543 -467 933 -620 1593 -12
50 -25 92 -30 92 -4 0 -11 -26 -15 -57z"/>
<path d="M8224 5479 c-6 -8 -42 -106 -79 -219 -183 -557 -357 -974 -613 -1474
-51 -98 -92 -182 -92 -187 0 -32 67 25 153 130 151 184 332 494 436 743 76
184 151 446 186 648 34 198 39 397 9 359z"/>
<path d="M4301 5370 c-122 -32 -201 -93 -201 -155 1 -85 133 -223 334 -350
l59 -38 -6 29 c-38 168 -69 338 -79 427 -7 61 -16 107 -23 106 -5 0 -43 -9
-84 -19z"/>
</g>
</svg>
